# xmcd CD database file
# Copyright (C) 1993-1996 Ti Kan
#
# Track frame offsets:
#	150
#	17665
#	28352
#	39902
#	51932
#	63187
#	78407
#	91422
#	116792
#	130190
#
# Disc length: 1879 seconds
#
# Revision: 1
# Processed by: cddbd v1.4b41PL1 Copyright (c) Steve Scherf et al.
# Submitted via: CDValet v3.31 - Copyright (c) 1997 Greg Leichner
#
DISCID=7f07550a
DTITLE=Brook Benton - Best of Brook  Benton
DYEAR=1900
DGENRE=
TTITLE0=Rainy Night In Georgia
TTITLE1=Endlessly
TTITLE2=So Many Ways
TTITLE3=The Boll Weevil Song
TTITLE4=A Rockin' Good Time
TTITLE5=Don't It Make You want To Go Home  
TTITLE6=Mother Nature,Father Nature
TTITLE7=My Way
TTITLE8=Beyond The Sea
TTITLE9=Sweet Georgia Brown
EXTD=
EXTT0=
EXTT1=
EXTT2=
EXTT3=
EXTT4=
EXTT5=
EXTT6=
EXTT7=
EXTT8=
EXTT9=
PLAYORDER=
